<svg width="496" height="495" viewBox="0 0 496 495" fill="none" xmlns="http://www.w3.org/2000/svg">
<path d="M484.52 491.75C483.73 491.75 482.93 491.63 482.15 491.39L372.61 457.75C335.04 480.01 292.12 491.75 248.23 491.75C113.48 491.75 3.85999 382.12 3.85999 247.37C3.85999 112.63 113.48 3 248.23 3C382.98 3 492.6 112.63 492.6 247.37C492.6 291.25 480.86 334.17 458.6 371.75L492.24 481.3C493.12 484.16 492.35 487.27 490.23 489.39C488.7 490.92 486.63 491.75 484.52 491.75ZM248.23 19.16C122.39 19.16 20.02 121.53 20.02 247.37C20.02 373.21 122.39 475.58 248.23 475.58C290.36 475.58 331.53 463.99 367.3 442.07C369.28 440.86 371.68 440.55 373.9 441.23L472.32 471.46L442.09 373.04C441.41 370.82 441.71 368.42 442.93 366.45C464.85 330.68 476.44 289.51 476.44 247.38C476.44 121.54 374.07 19.16 248.23 19.16Z" fill="#181818" stroke="#181818" stroke-width="6" stroke-miterlimit="10"/>
</svg>
