<svg width="490" height="489" viewBox="0 0 490 489" fill="none" xmlns="http://www.w3.org/2000/svg">
<path d="M481.52 488.75C480.73 488.75 479.93 488.63 479.15 488.39L369.61 454.75C332.04 477.01 289.12 488.75 245.23 488.75C110.48 488.75 0.859863 379.12 0.859863 244.37C0.859863 109.63 110.48 0 245.23 0C379.98 0 489.6 109.63 489.6 244.37C489.6 288.25 477.86 331.17 455.6 368.75L489.24 478.3C490.12 481.16 489.35 484.27 487.23 486.39C485.7 487.92 483.63 488.75 481.52 488.75ZM245.23 16.16C119.39 16.16 17.0199 118.53 17.0199 244.37C17.0199 370.21 119.39 472.58 245.23 472.58C287.36 472.58 328.53 460.99 364.3 439.07C366.28 437.86 368.68 437.55 370.9 438.23L469.32 468.46L439.09 370.04C438.41 367.82 438.71 365.42 439.93 363.45C461.85 327.68 473.44 286.51 473.44 244.38C473.44 118.54 371.07 16.16 245.23 16.16Z" fill="#2AC1BC"/>
<path d="M488 244C488 333.04 440.11 410.89 368.69 453.21C332.46 474.68 290.17 487 245 487C110.79 487 2 378.21 2 244C2 109.79 110.79 1 245 1C379.21 1 488 109.79 488 244Z" fill="#2AC1BC"/>
<path d="M481.52 488.75L489.6 482.07L455.61 368.75L439.93 363.45L367 435L368.69 453.21" fill="#2AC1BC"/>
</svg>
