<svg width="493" height="493" viewBox="0 0 493 493" fill="none" xmlns="http://www.w3.org/2000/svg">
<path d="M246.17 379.88C242.78 379.88 240.02 377.13 240.02 373.73V119.11C240.02 115.71 242.78 112.96 246.17 112.96C249.57 112.96 252.32 115.71 252.32 119.11V373.74C252.32 377.13 249.56 379.88 246.17 379.88Z" fill="#181818" stroke="#181818" stroke-width="6" stroke-miterlimit="10"/>
<path d="M322.26 201.53C320.69 201.53 319.11 200.93 317.91 199.73L246.17 127.99L174.43 199.73C172.03 202.13 168.14 202.13 165.74 199.73C163.34 197.33 163.34 193.43 165.74 191.04L241.83 114.95C244.23 112.55 248.12 112.55 250.52 114.95L326.61 191.04C329.01 193.44 329.01 197.33 326.61 199.73C325.4 200.93 323.83 201.53 322.26 201.53Z" fill="#181818" stroke="#181818" stroke-width="6" stroke-miterlimit="10"/>
<path d="M246.17 489.48C112.15 489.48 3.10999 380.45 3.10999 246.43C3.10999 112.41 112.14 3.37 246.17 3.37C380.19 3.37 489.23 112.4 489.23 246.43C489.23 380.44 380.19 489.48 246.17 489.48ZM246.17 15.66C118.93 15.66 15.41 119.18 15.41 246.42C15.41 373.66 118.93 477.18 246.17 477.18C373.41 477.18 476.93 373.66 476.93 246.42C476.93 119.18 373.41 15.66 246.17 15.66Z" fill="#181818" stroke="#181818" stroke-width="6" stroke-miterlimit="10"/>
</svg>
