<svg width="486" height="486" viewBox="0 0 486 486" fill="none" xmlns="http://www.w3.org/2000/svg">
<path d="M243 486C377.205 486 486 377.205 486 243C486 108.795 377.205 0 243 0C108.795 0 0 108.795 0 243C0 377.205 108.795 486 243 486Z" fill="#2AC1BC"/>
<path d="M243.17 376.88C239.78 376.88 237.02 374.13 237.02 370.73V116.11C237.02 112.71 239.78 109.96 243.17 109.96C246.57 109.96 249.32 112.71 249.32 116.11V370.74C249.32 374.13 246.56 376.88 243.17 376.88Z" fill="white" stroke="white" stroke-width="6" stroke-miterlimit="10"/>
<path d="M319.26 198.53C317.69 198.53 316.11 197.93 314.91 196.73L243.17 124.99L171.43 196.73C169.03 199.13 165.14 199.13 162.74 196.73C160.34 194.33 160.34 190.43 162.74 188.04L238.83 111.95C241.23 109.55 245.12 109.55 247.52 111.95L323.61 188.04C326.01 190.44 326.01 194.33 323.61 196.73C322.4 197.93 320.83 198.53 319.26 198.53Z" fill="white" stroke="white" stroke-width="6" stroke-miterlimit="10"/>
</svg>
