<svg width="497" height="497" viewBox="0 0 497 497" fill="none" xmlns="http://www.w3.org/2000/svg">
<path d="M248.77 383.44C245.35 383.44 242.57 380.66 242.57 377.24V120.34C242.57 116.91 245.35 114.14 248.77 114.14C252.19 114.14 254.97 116.92 254.97 120.34V377.24C254.97 380.66 252.19 383.44 248.77 383.44Z" fill="#181818" stroke="#181818" stroke-width="6" stroke-miterlimit="10"/>
<path d="M248.77 383.26C247.18 383.26 245.6 382.65 244.38 381.44L167.61 304.67C165.19 302.25 165.19 298.32 167.61 295.9C170.03 293.48 173.96 293.48 176.38 295.9L248.76 368.28L321.14 295.9C323.56 293.48 327.49 293.48 329.91 295.9C332.33 298.32 332.33 302.25 329.91 304.67L253.14 381.44C251.94 382.65 250.36 383.26 248.77 383.26Z" fill="#181818" stroke="#181818" stroke-width="6" stroke-miterlimit="10"/>
<path d="M248.77 494.01C113.55 494.01 3.54004 384 3.54004 248.78C3.54004 113.56 113.55 3.55005 248.77 3.55005C383.99 3.55005 494 113.56 494 248.78C494 384.01 383.99 494.01 248.77 494.01ZM248.77 15.9601C120.39 15.9601 15.9501 120.4 15.9501 248.78C15.9501 377.16 120.39 481.6 248.77 481.6C377.15 481.6 481.59 377.16 481.59 248.78C481.59 120.41 377.15 15.9601 248.77 15.9601Z" fill="#181818" stroke="#181818" stroke-width="6" stroke-miterlimit="10"/>
</svg>
