<svg width="486" height="486" viewBox="0 0 486 486" fill="none" xmlns="http://www.w3.org/2000/svg">
<path d="M243 486C377.205 486 486 377.205 486 243C486 108.795 377.205 0 243 0C108.795 0 0 108.795 0 243C0 377.205 108.795 486 243 486Z" fill="#2AC1BC"/>
<path d="M242.83 109.12C246.22 109.12 248.98 111.87 248.98 115.27V369.9C248.98 373.3 246.22 376.05 242.83 376.05C239.43 376.05 236.68 373.3 236.68 369.9V115.26C236.68 111.87 239.44 109.12 242.83 109.12Z" fill="white" stroke="white" stroke-width="6" stroke-miterlimit="10"/>
<path d="M166.74 287.47C168.31 287.47 169.89 288.07 171.09 289.27L242.83 361.01L314.57 289.27C316.97 286.87 320.86 286.87 323.26 289.27C325.66 291.67 325.66 295.57 323.26 297.96L247.17 374.05C244.77 376.45 240.88 376.45 238.48 374.05L162.39 297.96C159.99 295.56 159.99 291.67 162.39 289.27C163.6 288.07 165.17 287.47 166.74 287.47Z" fill="white" stroke="white" stroke-width="6" stroke-miterlimit="10"/>
</svg>
